<?xml version="1.0" encoding="UTF-8"?>
<svg version="1.1" xmlns="http://www.w3.org/2000/svg" viewBox="0 0 512 512">
<defs>
  <linearGradient id="rightGradient" x1="0%" y1="0%" x2="100%" y2="0%">
    <stop offset="0%" stopColor="#2563EB" />
    <stop offset="100%" stopColor="#3B82F6" />
  </linearGradient>
</defs>
<path d="M0 0 C0.83595703 0.14083008 1.67191406 0.28166016 2.53320312 0.42675781 C19.54196193 3.5151564 36.01100235 8.5423843 52.43978882 13.83181763 C149.52490668 47.83241407 149.52490668 47.83241407 247.25 34.1875 C259.70210712 27.17522125 270.65570492 18.54407336 278.9453125 6.76953125 C279.59113281 5.98642578 279.59113281 5.98642578 280.25 5.1875 C280.91 5.1875 281.57 5.1875 282.25 5.1875 C290.70677196 63.07123038 283.50099686 123.88677978 248.4609375 172.328125 C238.16033584 185.64975117 226.58419717 196.6606491 209.25 199.1875 C149.50001157 203.46340786 86.39590379 163.6111529 34.56013489 137.86769104 C-4.32092186 118.57488641 -47.29272047 98.23647155 -91.515625 97.984375 C-92.33909927 97.97758728 -93.16257355 97.97079956 -94.01100159 97.96380615 C-96.67403986 97.94687467 -99.33691137 97.94060623 -102 97.9375 C-103.36443741 97.93399536 -103.36443741 97.93399536 -104.75643921 97.93041992 C-118.64573037 97.91699044 -132.12103278 98.68982642 -145.89453125 100.53125 C-160.91266494 102.4319452 -160.91266494 102.4319452 -167.3125 99.625 C-172.69529341 94.24220659 -173.66055206 86.86166155 -174.9375 79.625 C-175.10967041 78.65208008 -175.28184082 77.67916016 -175.45922852 76.67675781 C-177.66695679 63.50678017 -178.32551448 51.25539674 -171.0625 39.5 C-152.01230769 13.16184066 -106.53224439 3.33483958 -76.4921875 -1.52734375 C-50.97365386 -5.17665388 -25.37073538 -4.32712954 0 0 Z " fill="url(#rightGradient)" transform="translate(201.75,203.8125)"/>
<path d="M0 0 C27.78270958 7.92459837 53.46070978 29.32673748 74 49 C75.12535156 50.06347656 75.12535156 50.06347656 76.2734375 51.1484375 C81.66934722 56.37372557 86.34646988 62.1132844 91 68 C92.19109375 69.48306641 92.19109375 69.48306641 93.40625 70.99609375 C100.20902191 79.61796132 106.23147549 88.65846928 112 98 C112.65742188 99.05960937 113.31484375 100.11921875 113.9921875 101.2109375 C117.08075036 106.48661665 119.8865963 111.71783191 119 118 C116.36835998 122.48353485 113.05423332 123.4615083 108.25 124.75 C87.21828803 129.58616906 64.03479981 127.97163364 43 124 C42.19208008 123.84966309 41.38416016 123.69932617 40.55175781 123.54443359 C15.78187067 118.72945553 -8.07614757 109.33797193 -31.375 99.875 C-62.86231484 87.08921252 -94.21406405 77.51418325 -128 73 C-128.75474609 72.8954248 -129.50949219 72.79084961 -130.28710938 72.68310547 C-180.12302928 66.69465336 -229.14153945 78.34577431 -273.8828125 99.8671875 C-275.01460937 100.40601563 -276.14640625 100.94484375 -277.3125 101.5 C-278.25738281 101.9640625 -279.20226562 102.428125 -280.17578125 102.90625 C-284.1447647 104.44333903 -288.0090056 105.50213792 -292.21484375 104.44140625 C-293.80989583 103.62760417 -295.40494792 102.81380208 -297 102 C-295.71076019 99.21176763 -294.31380469 97.01003398 -292.27734375 94.71484375 C-291.74367188 94.10769531 -291.21 93.50054687 -290.66015625 92.875 C-290.09167969 92.235625 -289.52320313 91.59625 -288.9375 90.9375 C-287.74749539 89.58308686 -286.55869743 88.22761261 -285.37109375 86.87109375 C-284.79085449 86.20835449 -284.21061523 85.54561523 -283.61279297 84.86279297 C-281.52337528 82.4494934 -279.50538675 79.98339328 -277.5 77.5 C-272.9073783 71.83268803 -268.12667886 66.33926642 -263.3359375 60.83984375 C-260.6450748 57.74949505 -257.97828768 54.63966999 -255.32177734 51.51977539 C-253.35116625 49.20904103 -251.36932492 46.90813381 -249.38476562 44.609375 C-248.07718891 43.08970897 -246.78042917 41.56075492 -245.484375 40.03125 C-228.18857422 20.16897556 -205.16432835 10.09625183 -179 8 C-153.21466447 6.40509477 -127.56690557 12.61585899 -102.44189453 17.63757324 C-95.9570778 18.93200802 -89.46936439 20.21183831 -82.9815979 21.49139023 C-80.74322269 21.93428692 -78.50571254 22.38134838 -76.26831055 22.82913208 C-57.26087654 26.61324595 -37.12588555 29.24018396 -19.5 19.1875 C-11.56042963 13.86785486 -5.60277143 7.72131937 0 0 Z " fill="url(#rightGradient)" transform="translate(347,33)"/>
<path d="M0 0 C2.88887152 0.40381854 5.7780907 0.80506591 8.66739273 1.20579147 C13.22374425 1.83856311 17.77881397 2.47987478 22.33299255 3.12809563 C24.02276928 3.36756512 25.71290501 3.60451621 27.40340424 3.83883095 C29.72244545 4.16101231 32.03989522 4.49286692 34.35718155 4.82740402 C35.66146606 5.01201187 36.96575058 5.19661972 38.30955887 5.38682175 C41.45312881 6.02906418 41.45312881 6.02906418 44.45312881 8.02906418 C6.43768487 38.31255342 -47.5705982 41.58007908 -93.96435165 36.4348259 C-120.83548999 33.16333636 -147.87548365 26.52472412 -171.54687119 13.02906418 C-173.22716415 12.0932048 -173.22716415 12.0932048 -174.94140244 11.13843918 C-180.99442432 7.60571466 -186.49607071 3.64391077 -191.85937119 -0.84593582 C-192.42937851 -1.32264725 -192.99938583 -1.79935867 -193.58666611 -2.2905159 C-194.9500426 -3.46900627 -196.25473124 -4.71474739 -197.54687119 -5.97093582 C-197.54687119 -6.63093582 -197.54687119 -7.29093582 -197.54687119 -7.97093582 C-193.52778826 -9.09592736 -189.50758459 -10.21679616 -185.48632431 -11.33397293 C-184.12045435 -11.71404531 -182.75488876 -12.09521334 -181.38964462 -12.47752762 C-179.41942031 -13.02904662 -177.44811003 -13.57652596 -175.47655869 -14.12327957 C-174.29303818 -14.45319901 -173.10951767 -14.78311844 -171.8901329 -15.12303543 C-121.50045739 -27.90259897 -51.00092727 -7.14229083 0 0 Z " fill="url(#rightGradient)" transform="translate(322.54687118530273,440.9709358215332)"/>
</svg>
